ffmpeg started on 2025-06-20 at 16:40:31
Report written to "D:\Convert\FFMetrics\reports\ssim_report-6.txt"
Log level: 32
Command line:
ffmpeg -hide_banner -nostdin -i "G:\\\xc0\xed\xe8\xec\xe5\\[\xd2\xee\xef]\\\xc2\xee\xeb\xf7\xe8\xf6\xe0 \xe8 \xef\xf0\xff\xed\xee\xf1\xf2\xe8\\\xd2\xee\xf0\xe3\xee\xe2\xe5\xf6 \xe2\xf1\xf2\xf0\xe5\xf7\xe0\xe5\xf2 \xec\xf3\xe4\xf0\xf3\xfe \xe2\xee\xeb\xf7\xe8\xf6\xf3\\DC_Ookami_to_Koushinryou_Merchant_Meets_the_Wise_Wolf_01_Telegram_HEVC.mkv" -i "G:\\\xc0\xed\xe8\xec\xe5\\[\xd2\xee\xef]\\\xc2\xee\xeb\xf7\xe8\xf6\xe0 \xe8 \xef\xf0\xff\xed\xee\xf1\xf2\xe8\\\xd2\xee\xf0\xe3\xee\xe2\xe5\xf6 \xe2\xf1\xf2\xf0\xe5\xf7\xe0\xe5\xf2 \xec\xf3\xe4\xf0\xf3\xfe \xe2\xee\xeb\xf7\xe8\xf6\xf3\\DC_Ookami_to_Koushinryou_Merchant_Meets_the_Wise_Wolf_01_Telegram.mp4" -lavfi "[0:v]settb=AVTB,setpts=PTS-STARTPTS,format=pix_fmts=yuv420p10,fps=24000/1001,scale=1920:1080:flags=bicubic[main];[1:v]settb=AVTB,setpts=PTS-STARTPTS,format=pix_fmts=yuv420p,fps=24000/1001,scale=1920:1080:flags=bicubic[ref];[main][ref]ssim=eof_action=endall:stats_file='D\\:/Convert/FFMetrics/logs/ssim_logfile-6.txt'" -f null -
Input #0, matroska,webm, from 'G:\Аниме\[Топ]\Волчица и пряности\Торговец встречает мудрую волчицу\DC_Ookami_to_Koushinryou_Merchant_Meets_the_Wise_Wolf_01_Telegram_HEVC.mkv':
  Metadata:
    COMPATIBLE_BRANDS: isomiso2avc1mp41
    MAJOR_BRAND     : isom
    MINOR_VERSION   : 512
    ENCODER         : Lavf61.7.100
  Duration: 00:23:57.65, start: -0.021000, bitrate: 995 kb/s
  Stream #0:0: Video: hevc (Main 10), yuv420p10le(tv, bt709, progressive), 1920x1080 [SAR 1:1 DAR 16:9], 23.98 fps, 23.98 tbr, 1k tbn (default)
      Metadata:
        HANDLER_NAME    : VideoHandler
        VENDOR_ID       : [0][0][0][0]
        ENCODER         : Lavc61.19.100 libx265
        BPS             : 799488
        DURATION        : 00:23:56.559708333
        NUMBER_OF_FRAMES: 34443
        NUMBER_OF_BYTES : 143563962
        _STATISTICS_WRITING_APP: mkvpropedit v66.0.0 ('Josie') 64-bit
        _STATISTICS_WRITING_DATE_UTC: 2025-06-20 09:02:35
        _STATISTICS_TAGS: BPS DURATION NUMBER_OF_FRAMES NUMBER_OF_BYTES
  Stream #0:1: Audio: aac (LC), 48000 Hz, stereo, fltp (default)
      Metadata:
        HANDLER_NAME    : SoundHandler
        VENDOR_ID       : [0][0][0][0]
        ENCODER         : Lavc61.19.100 aac
        BPS             : 192894
        DURATION        : 00:23:57.653000000
        NUMBER_OF_FRAMES: 67391
        NUMBER_OF_BYTES : 34664388
        _STATISTICS_WRITING_APP: mkvpropedit v66.0.0 ('Josie') 64-bit
        _STATISTICS_WRITING_DATE_UTC: 2025-06-20 09:02:35
        _STATISTICS_TAGS: BPS DURATION NUMBER_OF_FRAMES NUMBER_OF_BYTES
Input #1, mov,mp4,m4a,3gp,3g2,mj2, from 'G:\Аниме\[Топ]\Волчица и пряности\Торговец встречает мудрую волчицу\DC_Ookami_to_Koushinryou_Merchant_Meets_the_Wise_Wolf_01_Telegram.mp4':
  Metadata:
    major_brand     : isom
    minor_version   : 512
    compatible_brands: isomiso2avc1mp41
    encoder         : Lavf60.16.100
  Duration: 00:23:57.63, start: 0.000000, bitrate: 3644 kb/s
  Stream #1:0[0x1](und): Video: h264 (High) (avc1 / 0x31637661), yuv420p(tv, bt709, progressive), 1920x1080 [SAR 1:1 DAR 16:9], 3499 kb/s, 23.98 fps, 23.98 tbr, 24k tbn (default)
      Metadata:
        handler_name    : VideoHandler
        vendor_id       : [0][0][0][0]
        encoder         : Lavc60.31.102 h264_qsv
  Stream #1:1[0x2](und): Audio: aac (HE-AACv2) (mp4a / 0x6134706D), 48000 Hz, stereo, fltp, 144 kb/s (default)
      Metadata:
        handler_name    : SoundHandler
        vendor_id       : [0][0][0][0]
Stream mapping:
  Stream #0:0 (hevc) -> settb:default
  Stream #1:0 (h264) -> settb:default
  ssim:default -> Stream #0:0 (wrapped_avframe)
  Stream #0:1 -> #0:1 (aac (native) -> pcm_s16le (native))
Output #0, null, to 'pipe:':
  Metadata:
    COMPATIBLE_BRANDS: isomiso2avc1mp41
    MAJOR_BRAND     : isom
    MINOR_VERSION   : 512
    encoder         : Lavf61.7.100
  Stream #0:0: Video: wrapped_avframe, yuv420p10le(tv, bt709, progressive), 1920x1080 [SAR 1:1 DAR 16:9], q=2-31, 200 kb/s, 23.98 fps, 23.98 tbn
      Metadata:
        encoder         : Lavc61.19.100 wrapped_avframe
  Stream #0:1: Audio: pcm_s16le, 48000 Hz, stereo, s16, 1536 kb/s (default)
      Metadata:
        HANDLER_NAME    : SoundHandler
        VENDOR_ID       : [0][0][0][0]
        _STATISTICS_TAGS: BPS DURATION NUMBER_OF_FRAMES NUMBER_OF_BYTES
        BPS             : 192894
        DURATION        : 00:23:57.653000000
        NUMBER_OF_FRAMES: 67391
        NUMBER_OF_BYTES : 34664388
        _STATISTICS_WRITING_APP: mkvpropedit v66.0.0 ('Josie') 64-bit
        _STATISTICS_WRITING_DATE_UTC: 2025-06-20 09:02:35
        encoder         : Lavc61.19.100 pcm_s16le
frame=  161 fps=0.0 q=-0.0 size=N/A time=00:00:06.71 bitrate=N/A speed=13.3x    frame=  388 fps=376 q=-0.0 size=N/A time=00:00:16.18 bitrate=N/A speed=15.7x    frame=  623 fps=400 q=-0.0 size=N/A time=00:00:25.98 bitrate=N/A speed=16.7x    frame=  881 fps=426 q=-0.0 size=N/A time=00:00:36.74 bitrate=N/A speed=17.8x    frame= 1127 fps=437 q=-0.0 size=N/A time=00:00:47.00 bitrate=N/A speed=18.2x    frame= 1379 fps=444 q=-0.0 size=N/A time=00:00:57.51 bitrate=N/A speed=18.5x    frame= 1579 fps=437 q=-0.0 size=N/A time=00:01:05.85 bitrate=N/A speed=18.2x    frame= 1746 fps=422 q=-0.0 size=N/A time=00:01:12.82 bitrate=N/A speed=17.6x    frame= 1968 fps=423 q=-0.0 size=N/A time=00:01:22.08 bitrate=N/A speed=17.6x    frame= 2233 fps=433 q=-0.0 size=N/A time=00:01:33.13 bitrate=N/A speed=  18x    frame= 2487 fps=438 q=-0.0 size=N/A time=00:01:43.72 bitrate=N/A speed=18.3x    frame= 2738 fps=442 q=-0.0 size=N/A time=00:01:54.19 bitrate=N/A speed=18.4x    frame= 2945 fps=439 q=-0.0 size=N/A time=00:02:02.83 bitrate=N/A speed=18.3x    frame= 3165 fps=437 q=-0.0 size=N/A time=00:02:12.00 bitrate=N/A speed=18.2x    frame= 3364 fps=434 q=-0.0 size=N/A time=00:02:20.30 bitrate=N/A speed=18.1x    frame= 3550 fps=430 q=-0.0 size=N/A time=00:02:28.06 bitrate=N/A speed=17.9x    frame= 3755 fps=428 q=-0.0 size=N/A time=00:02:36.61 bitrate=N/A speed=17.8x    frame= 3959 fps=426 q=-0.0 size=N/A time=00:02:45.12 bitrate=N/A speed=17.8x    frame= 4172 fps=426 q=-0.0 size=N/A time=00:02:54.00 bitrate=N/A speed=17.8x    frame= 4399 fps=426 q=-0.0 size=N/A time=00:03:03.47 bitrate=N/A speed=17.8x    frame= 4638 fps=428 q=-0.0 size=N/A time=00:03:13.44 bitrate=N/A speed=17.9x    frame= 4861 fps=428 q=-0.0 size=N/A time=00:03:22.74 bitrate=N/A speed=17.9x    frame= 5139 fps=433 q=-0.0 size=N/A time=00:03:34.33 bitrate=N/A speed=18.1x    frame= 5369 fps=434 q=-0.0 size=N/A time=00:03:43.93 bitrate=N/A speed=18.1x    frame= 5602 fps=434 q=-0.0 size=N/A time=00:03:53.65 bitrate=N/A speed=18.1x    frame= 5863 fps=437 q=-0.0 size=N/A time=00:04:04.53 bitrate=N/A speed=18.2x    frame= 6109 fps=439 q=-0.0 size=N/A time=00:04:14.79 bitrate=N/A speed=18.3x    frame= 6304 fps=437 q=-0.0 size=N/A time=00:04:22.92 bitrate=N/A speed=18.2x    frame= 6587 fps=440 q=-0.0 size=N/A time=00:04:34.73 bitrate=N/A speed=18.4x    frame= 6841 fps=442 q=-0.0 size=N/A time=00:04:45.32 bitrate=N/A speed=18.4x    frame= 7056 fps=441 q=-0.0 size=N/A time=00:04:54.29 bitrate=N/A speed=18.4x    frame= 7293 fps=442 q=-0.0 size=N/A time=00:05:04.17 bitrate=N/A speed=18.4x    frame= 7563 fps=444 q=-0.0 size=N/A time=00:05:15.44 bitrate=N/A speed=18.5x    frame= 7833 fps=446 q=-0.0 size=N/A time=00:05:26.70 bitrate=N/A speed=18.6x    frame= 8083 fps=447 q=-0.0 size=N/A time=00:05:37.12 bitrate=N/A speed=18.6x    frame= 8316 fps=448 q=-0.0 size=N/A time=00:05:46.84 bitrate=N/A speed=18.7x    frame= 8566 fps=448 q=-0.0 size=N/A time=00:05:57.27 bitrate=N/A speed=18.7x    frame= 8808 fps=449 q=-0.0 size=N/A time=00:06:07.36 bitrate=N/A speed=18.7x    frame= 9029 fps=448 q=-0.0 size=N/A time=00:06:16.58 bitrate=N/A speed=18.7x    frame= 9254 fps=448 q=-0.0 size=N/A time=00:06:25.96 bitrate=N/A speed=18.7x    frame= 9448 fps=446 q=-0.0 size=N/A time=00:06:34.06 bitrate=N/A speed=18.6x    frame= 9698 fps=447 q=-0.0 size=N/A time=00:06:44.48 bitrate=N/A speed=18.7x    frame= 9932 fps=447 q=-0.0 size=N/A time=00:06:54.24 bitrate=N/A speed=18.7x    frame=10118 fps=446 q=-0.0 size=N/A time=00:07:02.00 bitrate=N/A speed=18.6x    frame=10380 fps=447 q=-0.0 size=N/A time=00:07:12.93 bitrate=N/A speed=18.6x    frame=10621 fps=447 q=-0.0 size=N/A time=00:07:22.98 bitrate=N/A speed=18.7x    frame=10875 fps=448 q=-0.0 size=N/A time=00:07:33.57 bitrate=N/A speed=18.7x    frame=11155 fps=450 q=-0.0 size=N/A time=00:07:45.25 bitrate=N/A speed=18.8x    frame=11412 fps=451 q=-0.0 size=N/A time=00:07:55.97 bitrate=N/A speed=18.8x    frame=11660 fps=452 q=-0.0 size=N/A time=00:08:06.31 bitrate=N/A speed=18.8x    frame=11888 fps=452 q=-0.0 size=N/A time=00:08:15.82 bitrate=N/A speed=18.8x    frame=12154 fps=453 q=-0.0 size=N/A time=00:08:26.92 bitrate=N/A speed=18.9x    frame=12388 fps=453 q=-0.0 size=N/A time=00:08:36.68 bitrate=N/A speed=18.9x    frame=12618 fps=453 q=-0.0 size=N/A time=00:08:46.27 bitrate=N/A speed=18.9x    frame=12864 fps=453 q=-0.0 size=N/A time=00:08:56.53 bitrate=N/A speed=18.9x    frame=13104 fps=453 q=-0.0 size=N/A time=00:09:06.54 bitrate=N/A speed=18.9x    frame=13329 fps=453 q=-0.0 size=N/A time=00:09:15.93 bitrate=N/A speed=18.9x    frame=13555 fps=453 q=-0.0 size=N/A time=00:09:25.35 bitrate=N/A speed=18.9x    frame=13768 fps=452 q=-0.0 size=N/A time=00:09:34.24 bitrate=N/A speed=18.9x    frame=13977 fps=451 q=-0.0 size=N/A time=00:09:42.95 bitrate=N/A speed=18.8x    frame=14190 fps=451 q=-0.0 size=N/A time=00:09:51.84 bitrate=N/A speed=18.8x    frame=14412 fps=451 q=-0.0 size=N/A time=00:10:01.10 bitrate=N/A speed=18.8x    frame=14659 fps=451 q=-0.0 size=N/A time=00:10:11.40 bitrate=N/A speed=18.8x    frame=14903 fps=451 q=-0.0 size=N/A time=00:10:21.57 bitrate=N/A speed=18.8x    frame=15134 fps=451 q=-0.0 size=N/A time=00:10:31.21 bitrate=N/A speed=18.8x    frame=15384 fps=452 q=-0.0 size=N/A time=00:10:41.64 bitrate=N/A speed=18.8x    frame=15629 fps=452 q=-0.0 size=N/A time=00:10:51.85 bitrate=N/A speed=18.9x    frame=15870 fps=452 q=-0.0 size=N/A time=00:11:01.91 bitrate=N/A speed=18.9x    frame=16106 fps=452 q=-0.0 size=N/A time=00:11:11.75 bitrate=N/A speed=18.9x    frame=16348 fps=453 q=-0.0 size=N/A time=00:11:21.84 bitrate=N/A speed=18.9x    frame=16593 fps=453 q=-0.0 size=N/A time=00:11:32.06 bitrate=N/A speed=18.9x    frame=16868 fps=454 q=-0.0 size=N/A time=00:11:43.53 bitrate=N/A speed=18.9x    frame=17091 fps=454 q=-0.0 size=N/A time=00:11:52.83 bitrate=N/A speed=18.9x    frame=17339 fps=454 q=-0.0 size=N/A time=00:12:03.18 bitrate=N/A speed=18.9x    frame=17569 fps=454 q=-0.0 size=N/A time=00:12:12.77 bitrate=N/A speed=18.9x    frame=17823 fps=454 q=-0.0 size=N/A time=00:12:23.40 bitrate=N/A speed=  19x    frame=18086 fps=455 q=-0.0 size=N/A time=00:12:34.33 bitrate=N/A speed=  19x    frame=18347 fps=456 q=-0.0 size=N/A time=00:12:45.22 bitrate=N/A speed=  19x    frame=18595 fps=456 q=-0.0 size=N/A time=00:12:55.56 bitrate=N/A speed=  19x    frame=18847 fps=456 q=-0.0 size=N/A time=00:13:06.07 bitrate=N/A speed=  19x    frame=19090 fps=457 q=-0.0 size=N/A time=00:13:16.21 bitrate=N/A speed=  19x    frame=19338 fps=457 q=-0.0 size=N/A time=00:13:26.55 bitrate=N/A speed=19.1x    frame=19592 fps=457 q=-0.0 size=N/A time=00:13:37.14 bitrate=N/A speed=19.1x    frame=19811 fps=457 q=-0.0 size=N/A time=00:13:46.28 bitrate=N/A speed=19.1x    frame=20060 fps=457 q=-0.0 size=N/A time=00:13:56.66 bitrate=N/A speed=19.1x    frame=20325 fps=458 q=-0.0 size=N/A time=00:14:07.72 bitrate=N/A speed=19.1x    frame=20614 fps=459 q=-0.0 size=N/A time=00:14:19.77 bitrate=N/A speed=19.1x    frame=20876 fps=460 q=-0.0 size=N/A time=00:14:30.70 bitrate=N/A speed=19.2x    frame=21141 fps=460 q=-0.0 size=N/A time=00:14:41.75 bitrate=N/A speed=19.2x    frame=21400 fps=461 q=-0.0 size=N/A time=00:14:52.55 bitrate=N/A speed=19.2x    frame=21671 fps=461 q=-0.0 size=N/A time=00:15:03.86 bitrate=N/A speed=19.2x    frame=21925 fps=462 q=-0.0 size=N/A time=00:15:14.45 bitrate=N/A speed=19.3x    frame=22199 fps=462 q=-0.0 size=N/A time=00:15:25.88 bitrate=N/A speed=19.3x    frame=22462 fps=463 q=-0.0 size=N/A time=00:15:36.85 bitrate=N/A speed=19.3x    frame=22722 fps=464 q=-0.0 size=N/A time=00:15:47.69 bitrate=N/A speed=19.3x    frame=22972 fps=464 q=-0.0 size=N/A time=00:15:58.12 bitrate=N/A speed=19.3x    frame=23231 fps=464 q=-0.0 size=N/A time=00:16:08.92 bitrate=N/A speed=19.4x    frame=23509 fps=465 q=-0.0 size=N/A time=00:16:20.52 bitrate=N/A speed=19.4x    frame=23777 fps=465 q=-0.0 size=N/A time=00:16:31.69 bitrate=N/A speed=19.4x    frame=24038 fps=466 q=-0.0 size=N/A time=00:16:42.58 bitrate=N/A speed=19.4x    frame=24296 fps=466 q=-0.0 size=N/A time=00:16:53.34 bitrate=N/A speed=19.4x    frame=24560 fps=467 q=-0.0 size=N/A time=00:17:04.35 bitrate=N/A speed=19.5x    frame=24837 fps=467 q=-0.0 size=N/A time=00:17:15.90 bitrate=N/A speed=19.5x    frame=25118 fps=468 q=-0.0 size=N/A time=00:17:27.62 bitrate=N/A speed=19.5x    frame=25394 fps=469 q=-0.0 size=N/A time=00:17:39.14 bitrate=N/A speed=19.5x    frame=25665 fps=469 q=-0.0 size=N/A time=00:17:50.44 bitrate=N/A speed=19.6x    frame=25911 fps=469 q=-0.0 size=N/A time=00:18:00.70 bitrate=N/A speed=19.6x    frame=26195 fps=470 q=-0.0 size=N/A time=00:18:12.54 bitrate=N/A speed=19.6x    frame=26440 fps=470 q=-0.0 size=N/A time=00:18:22.76 bitrate=N/A speed=19.6x    frame=26672 fps=470 q=-0.0 size=N/A time=00:18:32.44 bitrate=N/A speed=19.6x    frame=26933 fps=470 q=-0.0 size=N/A time=00:18:43.33 bitrate=N/A speed=19.6x    frame=27198 fps=471 q=-0.0 size=N/A time=00:18:54.38 bitrate=N/A speed=19.6x    frame=27476 fps=471 q=-0.0 size=N/A time=00:19:05.97 bitrate=N/A speed=19.7x    frame=27740 fps=472 q=-0.0 size=N/A time=00:19:16.98 bitrate=N/A speed=19.7x    frame=27992 fps=472 q=-0.0 size=N/A time=00:19:27.49 bitrate=N/A speed=19.7x    frame=28266 fps=472 q=-0.0 size=N/A time=00:19:38.92 bitrate=N/A speed=19.7x    frame=28542 fps=473 q=-0.0 size=N/A time=00:19:50.43 bitrate=N/A speed=19.7x    frame=28799 fps=473 q=-0.0 size=N/A time=00:20:01.15 bitrate=N/A speed=19.7x    frame=29029 fps=473 q=-0.0 size=N/A time=00:20:10.75 bitrate=N/A speed=19.7x    frame=29287 fps=473 q=-0.0 size=N/A time=00:20:21.51 bitrate=N/A speed=19.7x    frame=29520 fps=473 q=-0.0 size=N/A time=00:20:31.23 bitrate=N/A speed=19.7x    frame=29761 fps=473 q=-0.0 size=N/A time=00:20:41.28 bitrate=N/A speed=19.7x    frame=30002 fps=473 q=-0.0 size=N/A time=00:20:51.33 bitrate=N/A speed=19.7x    frame=30231 fps=473 q=-0.0 size=N/A time=00:21:00.88 bitrate=N/A speed=19.7x    frame=30450 fps=472 q=-0.0 size=N/A time=00:21:10.01 bitrate=N/A speed=19.7x    frame=30699 fps=472 q=-0.0 size=N/A time=00:21:20.40 bitrate=N/A speed=19.7x    frame=30927 fps=472 q=-0.0 size=N/A time=00:21:29.91 bitrate=N/A speed=19.7x    frame=31164 fps=472 q=-0.0 size=N/A time=00:21:39.79 bitrate=N/A speed=19.7x    frame=31419 fps=472 q=-0.0 size=N/A time=00:21:50.43 bitrate=N/A speed=19.7x    frame=31658 fps=472 q=-0.0 size=N/A time=00:22:00.40 bitrate=N/A speed=19.7x    frame=31886 fps=472 q=-0.0 size=N/A time=00:22:09.91 bitrate=N/A speed=19.7x    frame=32129 fps=472 q=-0.0 size=N/A time=00:22:20.04 bitrate=N/A speed=19.7x    frame=32262 fps=470 q=-0.0 size=N/A time=00:22:25.59 bitrate=N/A speed=19.6x    frame=32444 fps=469 q=-0.0 size=N/A time=00:22:33.18 bitrate=N/A speed=19.6x    frame=32637 fps=469 q=-0.0 size=N/A time=00:22:41.23 bitrate=N/A speed=19.5x    frame=32900 fps=469 q=-0.0 size=N/A time=00:22:52.20 bitrate=N/A speed=19.6x    frame=33155 fps=469 q=-0.0 size=N/A time=00:23:02.83 bitrate=N/A speed=19.6x    frame=33368 fps=469 q=-0.0 size=N/A time=00:23:11.72 bitrate=N/A speed=19.5x    frame=33602 fps=469 q=-0.0 size=N/A time=00:23:21.48 bitrate=N/A speed=19.5x    frame=33860 fps=469 q=-0.0 size=N/A time=00:23:32.24 bitrate=N/A speed=19.6x    frame=34056 fps=468 q=-0.0 size=N/A time=00:23:40.41 bitrate=N/A speed=19.5x    frame=34270 fps=468 q=-0.0 size=N/A time=00:23:49.34 bitrate=N/A speed=19.5x    [Parsed_ssim_10 @ 000001b7d13a2040] SSIM Y:0.993757 (22.046196) U:0.993914 (22.156619) V:0.994172 (22.344467) All:0.993852 (22.112921)
[out#0/null @ 000001b7d0b45480] video:14800KiB audio:269564KiB subtitle:0KiB other streams:0KiB global headers:0KiB muxing overhead: unknown
frame=34443 fps=468 q=-0.0 Lsize=N/A time=00:23:56.56 bitrate=N/A speed=19.5x    
